HIERARCHY
ROOT Hips
{
	OFFSET 0.000000 0.000000 0.000000
	CHANNELS 6 Xposition Yposition Zposition Yrotation Xrotation Zrotation 
	JOINT LeftHip
	{
		OFFSET 0.086059 -0.000429 0.000048
		CHANNELS 3 Yrotation Xrotation Zrotation
		JOINT LeftKnee
		{
			OFFSET 0.000000 -0.415789 0.000001
			CHANNELS 3 Yrotation Xrotation Zrotation
			JOINT LeftAnkle
			{
				OFFSET 0.000000 -0.468641 0.000230
				CHANNELS 3 Yrotation Xrotation Zrotation
				JOINT LeftToe
				{
					OFFSET 0.000000 -0.080523 0.174361
					CHANNELS 3 Yrotation Xrotation Zrotation
					End Site
					{
						OFFSET 0.000000 0.000000 0.000000
					}
				}
			}
		}
	}
	JOINT RightHip
	{
		OFFSET -0.086059 -0.000404 0.000045
		CHANNELS 3 Yrotation Xrotation Zrotation
		JOINT RightKnee
		{
			OFFSET 0.000000 -0.415789 0.000001
			CHANNELS 3 Yrotation Xrotation Zrotation
			JOINT RightAnkle
			{
				OFFSET 0.000000 -0.468641 0.000230
				CHANNELS 3 Yrotation Xrotation Zrotation
				JOINT RightToe
				{
					OFFSET 0.000000 -0.080523 0.174361
					CHANNELS 3 Yrotation Xrotation Zrotation
					End Site
					{
						OFFSET 0.000000 0.000000 0.000000
					}
				}
			}
		}
	}
	JOINT Chest
	{
		OFFSET 0.000000 0.105503 -0.011723
		CHANNELS 3 Yrotation Xrotation Zrotation
		JOINT Chest3
		{
			OFFSET 0.000000 0.218191 -0.010426
			CHANNELS 3 Yrotation Xrotation Zrotation
			JOINT Chest4
			{
				OFFSET 0.000000 0.104252 0.000170
				CHANNELS 3 Yrotation Xrotation Zrotation
				JOINT Neck
				{
					OFFSET 0.000000 0.146206 0.000000
					CHANNELS 3 Yrotation Xrotation Zrotation
					JOINT Head
					{
						OFFSET 0.000000 0.083446 0.000720
						CHANNELS 3 Yrotation Xrotation Zrotation
						End Site
						{
							OFFSET 0.000000 0.000000 0.000000
						}
					}
				}
				JOINT LeftCollar
				{
					OFFSET 0.031427 0.081855 0.000000
					CHANNELS 3 Yrotation Xrotation Zrotation
					JOINT LeftShoulder
					{
						OFFSET 0.143661 0.000000 0.000000
						CHANNELS 3 Yrotation Xrotation Zrotation
						JOINT LeftElbow
						{
							OFFSET 0.312275 0.000000 0.000000
							CHANNELS 3 Yrotation Xrotation Zrotation
							JOINT LeftWrist
							{
								OFFSET 0.224042 0.000000 -0.000056
								CHANNELS 3 Yrotation Xrotation Zrotation
								End Site
								{
									OFFSET 0.000000 0.000000 0.000000
								}
							}
						}
					}
				}
				JOINT RightCollar
				{
					OFFSET -0.031427 0.081855 0.000000
					CHANNELS 3 Yrotation Xrotation Zrotation
					JOINT RightShoulder
					{
						OFFSET -0.143661 0.000000 0.000000
						CHANNELS 3 Yrotation Xrotation Zrotation
						JOINT RightElbow
						{
							OFFSET -0.312275 0.000000 0.000000
							CHANNELS 3 Yrotation Xrotation Zrotation
							JOINT RightWrist
							{
								OFFSET -0.224042 0.000000 -0.000056
								CHANNELS 3 Yrotation Xrotation Zrotation
								End Site
								{
									OFFSET 0.000000 0.000000 0.000000
								}
							}
						}
					}
				}
			}
		}
	}
}
MOTION
Frames: 16
Frame Time: 0.016667
0.000000 0.000000 0.000000 232.256317 355.352245 357.143128 9.381910 348.297440 4.497512 10.378833 42.984412 5.874224 16.849825 11.746297 2.734344 359.275734 341.715065 350.314766 350.388631 353.118488 7.961346 355.689187 20.918818 359.902617 340.725058 352.706216 356.797566 0.760779 359.249353 1.530325 0.301159 6.202480 356.707660 0.832774 359.733535 356.909972 347.603159 8.435157 359.023954 343.720595 7.652147 4.124313 332.953975 341.972261 14.405736 356.371929 359.101441 353.295773 340.143685 334.206774 290.003628 276.571912 336.180439 338.579409 1.960746 3.410059 19.124789 357.769820 353.176917 5.752032 347.273697 345.966945 63.405876 108.279985 330.219426 10.802217 356.079081 2.116170 345.668806 
0.000000 0.000000 0.000000 232.106341 355.420444 357.036257 9.045909 347.092396 4.832625 9.933010 42.219429 5.786241 17.214396 10.470705 2.750756 358.535922 344.067663 350.813885 350.464357 353.406726 7.894724 355.668076 21.154562 359.875323 340.838486 352.231810 356.977329 0.963368 359.642828 1.317635 0.306639 6.187791 356.673177 0.842044 359.718553 356.876833 347.621283 8.436386 358.974692 343.403297 7.960135 4.275777 332.067510 342.883172 14.590884 356.288023 359.273231 353.309251 339.868658 333.780276 290.131159 276.365704 335.875738 339.045239 1.528445 3.247700 19.512802 357.842350 353.263167 5.799378 347.604843 345.521555 63.722197 108.308256 330.540081 10.346683 356.265288 2.180595 344.899244 
0.000000 0.000000 0.000000 231.913101 355.523120 356.945575 8.874574 346.014563 5.154175 9.426493 41.053748 5.674056 17.693628 8.951814 2.587548 357.651352 346.629457 351.559584 350.542847 353.700867 7.795484 355.670339 21.307741 359.854628 340.989915 351.780288 357.188515 1.243751 359.994354 1.108571 0.314549 6.152436 356.633295 0.853103 359.684163 356.838332 347.655115 8.426602 358.927102 343.078150 8.261324 4.430587 331.133713 343.917081 14.778689 356.215604 359.465664 353.322584 339.640089 333.366701 290.196680 276.089736 335.731245 339.641703 1.191908 3.121073 20.206980 357.894758 353.350292 5.841951 347.826455 345.080683 64.037209 108.293940 330.897800 9.862292 356.360968 2.213605 344.122254 
0.000000 0.000000 0.000000 231.675304 355.647153 356.867380 8.762309 345.070765 5.422791 8.949281 39.466263 5.568688 18.131174 7.285417 2.344425 357.005629 349.397517 352.340507 350.628504 354.065820 7.658085 355.716800 21.265767 359.858653 341.169014 351.416004 357.383141 1.457372 0.301537 0.907573 0.324261 6.101969 356.592269 0.864398 359.635420 356.798514 347.701468 8.409996 358.884215 342.746426 8.560967 4.585665 330.253706 344.982090 14.970771 356.154185 359.656869 353.329214 339.494220 332.980046 290.209461 275.742766 335.735527 340.345751 0.965157 3.002915 21.096845 357.928340 353.454726 5.872031 347.987624 344.619750 64.363078 108.252738 331.294248 9.352335 356.374063 2.229285 343.249932 
0.000000 0.000000 0.000000 231.387675 355.738358 356.801712 8.614640 344.300553 5.698401 8.376101 37.737677 5.408777 18.286821 5.850069 1.959125 356.992928 351.804351 353.034752 350.737328 354.533938 7.457693 355.829759 21.084092 359.900120 341.374745 351.147389 357.585782 1.552712 0.489458 0.752573 0.331826 6.061429 356.560845 0.873286 359.595124 356.767576 347.760666 8.399118 358.852748 342.432731 8.828361 4.720437 329.479924 345.986762 15.186844 356.101443 359.837128 353.318458 339.495573 332.655359 290.200849 275.323851 335.835819 341.132125 0.769507 2.912591 22.016580 357.942640 353.569780 5.896430 348.072545 344.186280 64.669567 108.249125 331.576673 8.811856 356.360750 2.354632 342.311477 
0.000000 0.000000 0.000000 231.045555 355.776693 356.747973 8.418309 343.740424 5.921439 7.736802 35.879273 5.344447 18.053195 4.720462 1.440792 357.554366 353.777757 353.624781 350.862303 355.102998 7.217517 355.990214 20.812625 359.934080 341.599132 350.946685 357.820423 1.545175 0.563404 0.647807 0.335739 6.041599 356.542951 0.878812 359.573061 356.749192 347.831792 8.399962 358.831978 342.137929 9.048500 4.829627 328.866388 346.863594 15.410060 356.055550 359.993940 353.285810 339.665664 332.407803 290.151198 274.834565 336.024933 341.992934 0.552605 2.858089 22.905401 357.920802 353.656857 5.915051 348.080192 343.777948 64.928507 108.259305 331.662594 8.260954 356.308558 2.551532 341.361661 
0.000000 0.000000 0.000000 230.653104 355.782280 356.707266 8.176353 343.368653 6.226492 6.989527 33.878525 5.095965 17.587067 3.728926 0.872231 358.248191 355.505321 354.275895 351.000170 355.727888 6.940589 356.180507 20.492770 359.954931 341.847808 350.787358 358.091608 1.459355 0.582615 0.568702 0.337282 6.035936 356.534638 0.882358 359.563239 356.739436 347.903918 8.386637 358.818252 341.836156 9.246793 4.913249 328.466128 347.580991 15.590371 356.022395 0.135038 353.237532 339.983761 332.239160 290.057645 274.278797 336.315644 342.913528 0.306649 2.781761 23.885624 357.878686 353.726169 5.917438 348.025013 343.406308 65.132586 108.263756 331.643144 7.707399 356.236907 2.658593 340.454427 
0.000000 0.000000 0.000000 230.219054 355.761264 356.682513 7.954110 343.175299 6.580043 6.173174 31.791301 4.757654 16.804852 3.089356 0.114926 358.921869 356.763002 355.102478 351.148456 356.376867 6.611152 356.382954 20.177018 359.971840 342.122876 350.634513 358.395985 1.335427 0.591826 0.506447 0.336591 6.040803 356.534901 0.884538 359.562402 356.737288 347.956612 8.340581 358.810815 341.534753 9.441977 4.963992 328.271322 348.127764 15.700264 356.011673 0.223099 353.182706 340.487541 332.205984 289.934162 273.726387 336.701564 343.805893 359.953814 2.722237 24.787246 357.835164 353.780470 5.914849 347.933191 343.125342 65.214536 108.254750 331.765682 7.173170 356.283441 2.564203 339.700370 
0.000000 0.000000 0.000000 229.751927 355.717658 356.671939 7.875298 343.188421 6.994610 5.178949 29.541637 4.176378 15.560062 2.852995 358.985978 359.597354 357.556360 356.356201 351.305991 357.086870 6.225743 356.607685 19.793474 359.993898 342.415100 350.515428 358.723687 1.187859 0.619382 0.442441 0.333240 6.040610 356.549766 0.883893 359.556695 356.748502 347.996662 8.305601 358.809770 341.285715 9.610853 4.987379 328.183841 348.508810 15.728035 356.013877 0.192122 353.134442 341.224614 332.332604 289.755079 273.233856 337.173753 344.665807 359.509992 2.681499 25.536149 357.786830 353.773714 5.909964 347.774727 342.964745 65.200477 108.280907 332.180925 6.682364 356.364525 2.396436 339.076729 
0.000000 0.000000 0.000000 229.244079 355.647841 356.677867 7.809364 343.276889 7.416489 4.111796 27.382610 3.550164 14.110208 2.844574 357.573802 0.106843 358.030131 357.770563 351.477090 357.909965 5.777486 356.878078 19.229658 0.024016 342.717333 350.494093 359.064274 1.004019 0.676026 0.366967 0.326717 6.044376 356.575708 0.881445 359.554259 356.770005 348.016535 8.285613 358.812832 341.088036 9.742356 4.992945 328.164277 348.752856 15.684168 356.041757 0.120624 353.084129 342.074292 332.552152 289.590482 272.768699 337.717599 345.549333 359.076125 2.669325 26.173153 357.739477 353.726172 5.900009 347.565613 342.883320 65.106800 108.323691 332.772761 6.224538 356.391629 2.401901 338.499903 
0.000000 0.000000 0.000000 228.681455 355.546733 356.709391 7.643095 343.542145 7.830691 3.189172 25.103740 3.023636 12.775137 3.330986 356.560399 0.212802 358.125286 358.633333 351.673659 358.820550 5.269628 357.184118 18.535722 0.061503 343.012634 350.552025 359.427041 0.794445 0.761891 0.272635 0.316686 6.073845 356.604667 0.879205 359.574432 356.794394 348.020709 8.283031 358.807591 340.942145 9.821893 5.010138 328.168293 348.892188 15.604729 356.099950 0.027282 353.057674 342.902806 332.801474 289.513273 272.322721 338.348034 346.438012 358.855756 2.651783 26.719826 357.699614 353.649635 5.889693 347.360151 342.839353 64.904440 108.354821 333.430242 5.817539 356.297311 2.581418 337.910522 
0.000000 0.000000 0.000000 228.040329 355.411972 356.766187 7.297326 344.047424 8.244574 2.451272 22.465137 2.632149 11.648008 4.774088 356.327925 0.076309 357.637993 358.604227 351.873124 359.760941 4.710664 357.540541 17.810855 0.082093 343.320593 350.651404 359.823285 0.541532 0.877363 0.167055 0.302663 6.139223 356.634441 0.877884 359.626323 356.819613 348.032696 8.307665 358.802375 340.856363 9.824600 5.055205 328.141180 348.947297 15.517323 356.175406 359.913557 353.064232 343.734185 333.060034 289.483323 271.929820 339.167085 347.332782 358.839525 2.601988 27.150048 357.661925 353.536759 5.862135 347.159736 342.824753 64.536330 108.381642 334.236612 5.455842 356.210027 2.395376 337.592059 
0.000000 0.000000 0.000000 227.343972 355.246840 356.850048 6.772277 344.755668 8.739785 2.042082 19.682350 2.257697 10.467073 6.783051 356.466326 0.014696 356.783638 358.217210 352.052516 0.728785 4.085328 357.883730 17.064547 0.083721 343.670385 350.758912 0.260430 0.308922 1.040934 0.046283 0.285539 6.229056 356.665538 0.876701 359.699903 356.846289 348.049858 8.356717 358.801849 340.821924 9.764284 5.110219 328.086480 348.931166 15.445264 356.299050 359.764253 353.116180 344.610972 333.315943 289.447463 271.642658 340.135905 348.167291 359.028842 2.566886 27.501671 357.610972 353.388825 5.834434 346.872764 342.830306 64.047555 108.385147 335.146557 5.238401 356.095598 1.993087 337.739369 
0.000000 0.000000 0.000000 226.649367 355.055154 356.973068 6.339548 345.583943 9.108568 1.772788 17.179423 2.007862 9.406469 8.509022 356.491414 359.978179 356.051381 358.003999 352.222675 1.707332 3.379244 358.213137 16.332429 0.079252 344.026386 350.860049 0.726721 0.114277 1.239032 359.941671 0.267117 6.330660 356.692863 0.875453 359.784286 356.870193 348.052512 8.421287 358.802240 340.815145 9.671402 5.149077 328.048154 348.856683 15.412123 356.448787 359.570877 353.182323 345.428419 333.608659 289.473277 271.465869 341.050420 348.893383 359.304408 2.739157 27.834545 357.557060 353.276739 5.803226 346.554919 342.849987 63.587251 108.398644 335.796168 5.075359 355.894915 2.073954 338.253209 
0.000000 0.000000 0.000000 225.974049 354.827907 357.142082 6.032751 346.327561 9.346414 1.535467 15.370848 1.831709 8.523234 9.648156 356.275209 359.974342 355.521244 358.130648 352.368099 2.645734 2.600094 358.512105 15.733503 0.057385 344.395987 350.887223 1.222639 359.953636 1.465354 359.877117 0.247005 6.452615 356.716924 0.873630 359.887358 356.891921 348.042000 8.503500 358.803310 340.824487 9.542860 5.167725 328.041941 348.715274 15.431273 356.650241 359.406101 353.264237 346.105970 333.899925 289.616545 271.345252 341.942191 349.486068 359.547917 2.992397 28.042283 357.499188 353.226395 5.757470 346.234841 342.853908 63.211990 108.403925 335.946397 4.963384 355.609279 2.400245 338.959464 
0.000000 0.000000 0.000000 225.299674 354.575550 357.351287 5.785143 347.063317 9.458986 1.310903 14.037914 1.698752 7.855715 10.438146 356.055777 0.022529 355.087291 358.382077 352.466815 3.606066 1.730461 358.825455 15.129044 0.047354 344.769797 350.915316 1.740009 359.805142 1.707193 359.836164 0.226804 6.585539 356.737016 0.871048 0.000476 356.910690 348.038928 8.596066 358.807025 340.848243 9.386087 5.168995 328.058168 348.509152 15.471720 356.853193 359.197016 353.355969 346.719625 334.285673 289.741542 271.291537 342.886472 349.961021 359.716747 3.278849 28.000171 357.428405 353.182759 5.704543 345.905910 342.895743 62.851862 108.409358 335.774322 4.897334 355.259962 2.397906 339.761735 
